<svg width="278" height="62" viewBox="0 0 278 62" fill="none" xmlns="http://www.w3.org/2000/svg">
<path d="M54.61 4.196C55.79 4.58933 56.439 4.98267 56.557 5.376L56.616 5.612C56.616 6.438 55.79 7.59833 54.138 9.093C47.412 16.645 42.633 22.486 39.801 26.616C38.975 27.796 37.8146 29.5267 36.32 31.808C34.8253 34.05 33.606 35.8397 32.662 37.177C31.7573 38.5537 30.538 40.2647 29.004 42.31C27.5093 44.3947 26.172 46.1057 24.992 47.443C23.8513 48.7803 22.4353 50.275 20.744 51.927C19.092 53.579 17.499 54.9557 15.965 56.057C12.5036 58.535 8.78662 60.364 4.81395 61.544C3.79129 61.544 2.82762 61.2883 1.92295 60.777C0.978953 60.305 0.487286 59.6167 0.447953 58.712C0.487286 56.588 2.13929 53.9527 5.40395 50.806C8.66862 47.6987 13.0543 45.319 18.561 43.667C19.3476 43.4703 19.8983 43.1753 20.213 42.782L37.087 22.663L37.972 21.483C38.0506 21.3257 38.09 21.2273 38.09 21.188C38.09 21.1093 38.0506 21.07 37.972 21.07C37.9326 21.07 37.0673 21.9353 35.376 23.666C33.6846 25.3573 32.2096 26.8717 30.951 28.209C29.7316 29.5463 28.119 31.159 26.113 33.047C24.107 34.8957 21.6486 36.7247 18.738 38.534C15.8666 40.3827 13.4476 41.307 11.481 41.307C8.88495 41.307 7.27229 39.596 6.64295 36.174C6.52495 35.3873 6.46595 34.6007 6.46595 33.814C6.46595 30.274 7.99995 26.4783 11.068 22.427C14.0966 18.3363 17.8136 14.7177 22.219 11.571C26.6636 8.385 31.4426 5.73 36.556 3.606C41.6693 1.44266 46.2123 0.341331 50.185 0.301998H50.244C51.5026 0.301998 52.545 0.734665 53.371 1.6C54.2363 2.426 54.669 3.15366 54.669 3.783C54.669 3.97967 54.6493 4.11733 54.61 4.196ZM3.39795 58.476C3.39795 58.712 3.49629 58.83 3.69295 58.83H3.81095C4.79429 58.83 7.27229 56.942 11.245 53.166C15.257 49.4293 17.617 46.6563 18.325 44.847C18.325 44.7683 18.2856 44.729 18.207 44.729C15.5716 45.673 12.4446 47.9543 8.82595 51.573C5.20729 55.231 3.39795 57.532 3.39795 58.476ZM52.427 5.199C52.663 4.963 52.781 4.786 52.781 4.668C52.781 4.51066 52.604 4.432 52.25 4.432C49.8506 4.432 46.7826 5.258 43.046 6.91C39.3486 8.52267 35.553 10.6663 31.659 13.341C27.8043 16.0157 24.0086 19.3197 20.272 23.253C16.5746 27.147 13.6443 31.1393 11.481 35.23C11.363 35.3873 11.304 35.5447 11.304 35.702C11.304 35.82 11.4023 35.879 11.599 35.879C13.8016 35.879 19.0133 32.6733 27.234 26.262C35.494 19.8113 43.8916 12.7903 52.427 5.199ZM51.529 33.106C52.827 33.106 55.3837 31.9457 59.199 29.625C63.0537 27.3043 66.5544 24.9837 69.701 22.663L74.48 19.182C74.834 19.4573 75.011 19.7917 75.011 20.185C75.011 20.5783 74.8144 20.952 74.421 21.306C74.0277 21.66 73.4574 22.1713 72.71 22.84C72.002 23.5087 70.6254 24.7083 68.58 26.439C66.5347 28.1697 64.627 29.743 62.857 31.159C58.2157 34.8957 54.7937 37.0983 52.591 37.767C51.883 37.9637 51.1554 38.062 50.408 38.062C49.6607 38.062 49.0707 38.003 48.638 37.885C48.2054 37.767 47.7334 37.5113 47.222 37.118C46.1994 36.2527 45.688 34.3253 45.688 31.336C45.688 30.51 46.042 29.2513 46.75 27.56C47.458 25.8687 48.6184 23.8233 50.231 21.424C51.883 19.0247 53.7907 16.6253 55.954 14.226C58.1567 11.8267 60.9297 9.42733 64.273 7.028C67.6557 4.62867 71.2547 2.68167 75.07 1.187C75.66 0.99033 76.191 0.891997 76.663 0.891997C77.135 0.891997 77.5677 1.10833 77.961 1.541C78.3544 1.93433 78.6297 2.34733 78.787 2.78L79.082 3.37C79.082 4.27466 77.6857 6.261 74.893 9.329C72.0217 12.515 68.698 15.5633 64.922 18.474C61.1854 21.3453 57.7044 23.8037 54.479 25.849C51.8437 27.5797 50.526 29.389 50.526 31.277C50.526 32.4963 50.8604 33.106 51.529 33.106ZM56.839 20.893C57.8224 20.893 60.792 18.474 65.748 13.636C70.7434 8.798 73.241 6.10366 73.241 5.553L73.182 5.435L72.179 5.907C70.1337 7.24433 67.4 9.52567 63.978 12.751C60.5954 15.9763 58.255 18.4937 56.957 20.303C56.7997 20.4997 56.721 20.657 56.721 20.775C56.721 20.8537 56.7604 20.893 56.839 20.893ZM78.616 31.749C84.4767 28.6023 90.9274 24.4133 97.968 19.182C98.322 19.4573 98.499 19.7917 98.499 20.185C98.499 20.5783 98.3024 20.952 97.909 21.306C97.5157 21.66 96.9454 22.1713 96.198 22.84C95.49 23.5087 94.1134 24.7083 92.068 26.439C90.0227 28.1697 88.115 29.743 86.345 31.159C81.7037 34.8957 78.2817 37.0983 76.079 37.767C75.371 37.9637 74.604 38.062 73.778 38.062C72.4407 38.062 71.772 37.0197 71.772 34.935C71.772 34.5023 71.949 33.8533 72.303 32.988C72.6964 32.1227 72.9127 31.631 72.952 31.513C73.0307 31.3557 73.0897 31.2377 73.129 31.159C73.1684 31.0803 73.2077 31.0213 73.247 30.982C73.2864 30.9033 73.306 30.8247 73.306 30.746C73.306 30.6673 73.188 30.628 72.952 30.628C72.7554 30.628 72.1064 31.159 71.005 32.221C69.9037 33.2437 68.9794 34.0697 68.232 34.699C67.524 35.3283 66.698 35.9183 65.754 36.469C64.8494 37.0197 64.102 37.295 63.512 37.295C61.9387 37.295 61.152 36.5673 61.152 35.112C61.152 34.2467 61.447 33.1847 62.037 31.926C63.4137 29.0153 65.4787 26.1047 68.232 23.194C70.9854 20.2833 72.952 18.8083 74.132 18.769C74.5647 18.769 74.958 18.9263 75.312 19.241C75.666 19.5557 75.843 19.9097 75.843 20.303C75.843 20.6963 75.4497 21.2863 74.663 22.073C73.8764 22.8597 72.8734 23.8823 71.654 25.141C70.474 26.3603 69.6284 27.383 69.117 28.209C68.645 29.035 68.409 29.5857 68.409 29.861C68.409 30.1363 68.5664 30.274 68.881 30.274C69.1957 30.274 69.766 30.0183 70.592 29.507C72.834 27.973 75.3907 26.085 78.262 23.843C81.1727 21.601 83.041 19.9687 83.867 18.946C84.0637 18.238 84.6537 17.884 85.637 17.884C87.525 17.884 88.469 18.2183 88.469 18.887C88.469 19.1623 87.5447 20.185 85.696 21.955C80.15 27.265 77.377 30.5493 77.377 31.808C77.377 32.0047 77.4557 32.103 77.613 32.103C77.8097 32.103 78.144 31.985 78.616 31.749ZM113.975 9.742L116.984 9.683C120.878 9.683 123.71 10.2337 125.48 11.335C126.345 11.6103 126.778 11.9643 126.778 12.397C126.778 12.7117 126.384 12.928 125.598 13.046C124.85 13.164 122.195 13.4787 117.633 13.99C113.109 14.462 110.002 14.7373 108.311 14.816C107.563 14.8553 105.833 16.1533 103.119 18.71C100.444 21.2667 97.8872 24.079 95.4486 27.147C93.0099 30.215 91.7906 32.3587 91.7906 33.578C91.7906 33.7747 91.8889 33.9517 92.0856 34.109C92.2822 34.227 92.5182 34.286 92.7936 34.286C93.1082 34.286 93.5802 34.168 94.2096 33.932C101.683 29.5267 108.94 24.7083 115.981 19.477C116.335 19.7523 116.512 20.0867 116.512 20.48C116.512 20.8733 116.315 21.2667 115.922 21.66C115.528 22.014 114.938 22.545 114.152 23.253C113.404 23.961 111.988 25.2393 109.904 27.088C107.819 28.9367 105.852 30.5887 104.004 32.044C99.0476 36.056 95.5862 38.3767 93.6196 39.006C92.9116 39.2027 92.0659 39.301 91.0826 39.301C90.1386 39.301 89.2536 38.8093 88.4276 37.826C87.6409 36.8427 87.2476 35.5053 87.2476 33.814C87.2476 32.1227 88.3292 29.684 90.4926 26.498C92.6952 23.312 95.6846 20.0473 99.4606 16.704C99.8146 16.4287 99.9916 16.173 99.9916 15.937C99.9916 15.701 99.5786 15.583 98.7526 15.583L95.0356 15.701C89.8042 15.701 87.1099 15.111 86.9526 13.931C85.7332 13.695 85.1236 13.341 85.1236 12.869C85.1236 12.7117 85.2022 12.633 85.3596 12.633C85.5169 12.5937 85.6546 12.574 85.7726 12.574C85.8906 12.5347 86.0872 12.4953 86.3626 12.456C86.6379 12.4167 88.8012 12.102 92.8526 11.512C96.9432 10.922 101.585 10.4303 106.777 10.037L110.848 4.609C111.084 4.137 111.91 3.901 113.326 3.901C114.742 3.901 115.45 4.196 115.45 4.786C115.45 4.98267 115.292 5.33667 114.978 5.848L113.503 7.913C113.306 8.54233 113.188 9.01433 113.149 9.329C113.149 9.60433 113.424 9.742 113.975 9.742ZM123.679 19.182C122.656 19.182 120.925 20.244 118.487 22.368C116.048 24.4527 114.829 25.731 114.829 26.203C114.829 26.2817 114.888 26.321 115.006 26.321C115.871 26.321 117.582 25.3573 120.139 23.43C122.735 21.5027 124.033 20.185 124.033 19.477C124.033 19.2803 123.915 19.182 123.679 19.182ZM111.112 38.062C108.083 38.062 106.569 36.2133 106.569 32.516C106.569 30.1953 107.572 27.737 109.578 25.141C111.623 22.5057 114.022 20.362 116.776 18.71C119.529 17.0187 121.968 16.173 124.092 16.173C125.036 16.173 125.901 16.5467 126.688 17.294C127.514 18.0413 127.927 18.769 127.927 19.477C127.927 20.775 127.002 22.25 125.154 23.902C123.305 25.5147 121.358 26.8323 119.313 27.855C117.307 28.8383 115.969 29.33 115.301 29.33C114.671 29.33 114.199 29.035 113.885 28.445C113.727 28.327 113.511 28.268 113.236 28.268C112.96 28.268 112.508 28.799 111.879 29.861C111.249 30.8837 110.935 31.7293 110.935 32.398C110.935 33.0273 111.171 33.4207 111.643 33.578C114.632 33.578 117.877 32.7127 121.378 30.982C124.878 29.212 129.716 26.1243 135.892 21.719C136.324 21.4043 136.973 20.9323 137.839 20.303C138.743 19.6737 139.274 19.3 139.432 19.182C139.786 19.4573 139.963 19.7917 139.963 20.185C139.963 20.5783 139.786 20.9323 139.432 21.247C137.465 23.2137 134.908 25.4163 131.762 27.855C128.654 30.2937 125.075 32.6143 121.024 34.817C116.972 36.9803 113.668 38.062 111.112 38.062ZM139.801 17.471C140.116 17.471 140.627 17.6283 141.335 17.943C142.082 18.2577 142.456 18.6117 142.456 19.005C142.456 19.2803 142.358 19.5557 142.161 19.831L137.736 25.967C137.225 26.5963 136.969 26.9503 136.969 27.029C136.969 27.1077 136.989 27.147 137.028 27.147L137.323 26.97C141.886 23.784 145.642 20.9913 148.592 18.592C149.143 18.1987 149.595 18.002 149.949 18.002C150.342 18.002 150.598 18.0413 150.716 18.12L152.368 18.592C152.761 18.7887 152.958 19.0443 152.958 19.359C152.958 19.6737 152.879 19.9293 152.722 20.126C151.975 20.952 151.109 21.896 150.126 22.958C149.182 23.9807 148.474 24.7673 148.002 25.318C147.53 25.8293 146.999 26.4193 146.409 27.088C145.819 27.7567 145.386 28.268 145.111 28.622C144.875 28.976 144.6 29.389 144.285 29.861C143.97 30.2937 143.754 30.6673 143.636 30.982C143.4 31.8867 143.282 32.6733 143.282 33.342C143.282 33.696 143.498 33.873 143.931 33.873C144.403 33.873 145.229 33.5977 146.409 33.047C147.628 32.4963 149.064 31.6507 150.716 30.51C152.407 29.3693 154.63 27.7567 157.383 25.672C160.176 23.548 162.614 21.7583 164.699 20.303C165.053 20.5783 165.23 20.9127 165.23 21.306C165.23 21.6993 165.053 22.0533 164.699 22.368C163.44 23.5873 161.847 25.1213 159.92 26.97C157.993 28.7793 155.043 31.218 151.07 34.286C147.137 37.354 144.383 38.888 142.81 38.888C139.781 38.888 138.267 37.2753 138.267 34.05C138.267 32.8307 138.739 31.5523 139.683 30.215L142.22 26.734C142.456 26.38 142.574 26.1833 142.574 26.144C142.574 26.0653 142.456 26.1243 142.22 26.321C135.376 32.0243 131.01 35.3677 129.122 36.351C128.807 36.5477 128.414 36.646 127.942 36.646C126.644 36.646 125.995 36.056 125.995 34.876C125.995 34.4827 126.093 34.1287 126.29 33.814C129.201 31.1393 131.246 28.9563 132.426 27.265C133.37 26.321 134.353 25.0033 135.376 23.312C136.438 21.6207 137.323 20.2243 138.031 19.123C138.778 18.0217 139.368 17.471 139.801 17.471ZM172.011 8.916C171.381 8.24733 171.067 7.618 171.067 7.028C171.067 6.438 171.244 6.00533 171.598 5.73C171.952 5.41533 172.424 5.12033 173.014 4.845C173.604 4.56966 174.233 4.314 174.902 4.078C175.57 3.80267 176.298 3.56667 177.085 3.37C177.871 3.134 178.54 2.93733 179.091 2.78C180.664 2.34733 181.667 2.131 182.1 2.131C182.532 2.131 182.749 2.20967 182.749 2.367C182.749 2.52433 182.611 2.721 182.336 2.957C182.06 3.193 181.923 3.33066 181.923 3.37C181.923 3.40933 181.982 3.429 182.1 3.429C182.257 3.429 182.454 3.38967 182.69 3.311C190.242 1.73767 197.538 0.951 204.579 0.951C211.659 0.951 216.556 2.09167 219.27 4.373C219.348 4.45167 219.604 4.668 220.037 5.022C221.02 5.966 221.512 6.497 221.512 6.615C221.512 6.969 221.099 7.146 220.273 7.146C210.715 7.146 202.789 7.48033 196.496 8.149C195.866 8.149 195.552 8.24733 195.552 8.444C195.552 8.52267 195.689 8.66033 195.965 8.857C196.24 9.01433 196.378 9.27 196.378 9.624C196.378 9.978 196.122 10.3123 195.611 10.627L188.118 17.53C187.803 17.7267 187.646 17.9037 187.646 18.061C187.646 18.179 187.783 18.238 188.059 18.238L189.003 18.12C190.812 17.9627 192.523 17.884 194.136 17.884C200.036 17.884 202.986 19.2017 202.986 21.837C202.986 22.0337 202.946 22.1713 202.868 22.25C202.828 22.2893 202.317 22.3483 201.334 22.427C200.39 22.4663 197.164 22.8793 191.658 23.666C186.19 24.4527 183.024 24.9837 182.159 25.259C181.293 25.5343 180.625 25.9277 180.153 26.439C175.079 33.0863 172.227 37.2163 171.598 38.829C171.558 38.829 171.48 39.1437 171.362 39.773C171.283 40.4023 171.204 40.717 171.126 40.717C170.772 40.717 170.064 40.363 169.002 39.655C167.94 38.9863 167.409 38.3767 167.409 37.826C167.409 37.2753 167.487 36.7443 167.645 36.233C167.763 35.7217 167.94 35.1513 168.176 34.522C168.372 33.8533 169.021 32.5947 170.123 30.746C171.185 28.858 172.522 27.0683 174.135 25.377C174.213 25.377 174.253 25.318 174.253 25.2C174.253 25.0427 174.017 24.5313 173.545 23.666C173.073 22.7613 172.837 22.2303 172.837 22.073C172.837 21.2863 173.112 20.7947 173.663 20.598C174.213 20.362 175.846 20.008 178.56 19.536L179.327 19.418H179.386C179.7 19.418 180.31 18.9657 181.215 18.061C187.311 12.633 190.891 9.64367 191.953 9.093C192.346 8.89633 192.543 8.739 192.543 8.621C192.543 8.503 192.425 8.444 192.189 8.444C191.953 8.444 191.756 8.46367 191.599 8.503C184.912 9.447 179.307 9.919 174.784 9.919C173.604 9.919 172.679 9.58467 172.011 8.916ZM199.586 25.967C201.75 24.4723 204.011 22.8597 206.371 21.129C205.113 20.2637 204.306 19.418 203.952 18.592C203.834 18.3167 203.775 18.12 203.775 18.002C203.775 17.2153 204.031 16.704 204.542 16.468C205.054 16.1927 205.88 16.055 207.02 16.055C207.453 16.055 208.731 16.586 210.855 17.648C212.979 18.71 214.317 19.241 214.867 19.241C215.457 19.241 216.264 19.0837 217.286 18.769C218.309 18.415 219.115 18.238 219.705 18.238C220.335 18.238 220.787 18.3757 221.062 18.651C222.046 19.949 222.537 20.7357 222.537 21.011C222.537 21.2863 222.4 21.5223 222.124 21.719C221.888 21.8763 221.082 22.427 219.705 23.371C218.368 24.315 217.05 25.2787 215.752 26.262C214.454 27.2453 213.235 28.3467 212.094 29.566C210.954 30.7853 210.383 31.7687 210.383 32.516C210.383 32.634 210.482 32.693 210.678 32.693C212.802 32.693 219.961 28.386 232.154 19.772C232.43 19.772 232.567 20.0277 232.567 20.539C232.567 21.011 231.014 22.7023 227.906 25.613C224.799 28.4843 221.279 31.3163 217.345 34.109C213.451 36.8623 210.619 38.239 208.849 38.239C206.096 38.239 204.719 36.8623 204.719 34.109C204.719 32.6143 205.211 31.1787 206.194 29.802C207.217 28.386 209.341 26.498 212.566 24.138C211.898 24.138 210.993 23.9807 209.852 23.666C208.712 23.312 207.984 22.899 207.669 22.427C206.647 23.3317 204.877 24.846 202.359 26.97C201.769 27.4027 201.002 27.619 200.058 27.619C199.114 27.619 198.642 27.4813 198.642 27.206C198.642 26.8913 198.957 26.4783 199.586 25.967ZM240.181 19.182C239.158 19.182 237.427 20.244 234.989 22.368C232.55 24.4527 231.331 25.731 231.331 26.203C231.331 26.2817 231.39 26.321 231.508 26.321C232.373 26.321 234.084 25.3573 236.641 23.43C239.237 21.5027 240.535 20.185 240.535 19.477C240.535 19.2803 240.417 19.182 240.181 19.182ZM227.614 38.062C224.585 38.062 223.071 36.2133 223.071 32.516C223.071 30.1953 224.074 27.737 226.08 25.141C228.125 22.5057 230.524 20.362 233.278 18.71C236.031 17.0187 238.47 16.173 240.594 16.173C241.538 16.173 242.403 16.5467 243.19 17.294C244.016 18.0413 244.429 18.769 244.429 19.477C244.429 20.775 243.504 22.25 241.656 23.902C239.807 25.5147 237.86 26.8323 235.815 27.855C233.809 28.8383 232.471 29.33 231.803 29.33C231.173 29.33 230.701 29.035 230.387 28.445C230.229 28.327 230.013 28.268 229.738 28.268C229.462 28.268 229.01 28.799 228.381 29.861C227.751 30.8837 227.437 31.7293 227.437 32.398C227.437 33.0273 227.673 33.4207 228.145 33.578C231.134 33.578 234.379 32.7127 237.88 30.982C241.38 29.212 246.218 26.1243 252.394 21.719C252.826 21.4043 253.475 20.9323 254.341 20.303C255.245 19.6737 255.776 19.3 255.934 19.182C256.288 19.4573 256.465 19.7917 256.465 20.185C256.465 20.5783 256.288 20.9323 255.934 21.247C253.967 23.2137 251.41 25.4163 248.264 27.855C245.156 30.2937 241.577 32.6143 237.526 34.817C233.474 36.9803 230.17 38.062 227.614 38.062ZM261.672 19.182C260.649 19.182 258.919 20.244 256.48 22.368C254.041 24.4527 252.822 25.731 252.822 26.203C252.822 26.2817 252.881 26.321 252.999 26.321C253.864 26.321 255.575 25.3573 258.132 23.43C260.728 21.5027 262.026 20.185 262.026 19.477C262.026 19.2803 261.908 19.182 261.672 19.182ZM249.105 38.062C246.076 38.062 244.562 36.2133 244.562 32.516C244.562 30.1953 245.565 27.737 247.571 25.141C249.616 22.5057 252.016 20.362 254.769 18.71C257.522 17.0187 259.961 16.173 262.085 16.173C263.029 16.173 263.894 16.5467 264.681 17.294C265.507 18.0413 265.92 18.769 265.92 19.477C265.92 20.775 264.996 22.25 263.147 23.902C261.298 25.5147 259.351 26.8323 257.306 27.855C255.3 28.8383 253.963 29.33 253.294 29.33C252.665 29.33 252.193 29.035 251.878 28.445C251.721 28.327 251.504 28.268 251.229 28.268C250.954 28.268 250.501 28.799 249.872 29.861C249.243 30.8837 248.928 31.7293 248.928 32.398C248.928 33.0273 249.164 33.4207 249.636 33.578C252.625 33.578 255.87 32.7127 259.371 30.982C262.872 29.212 267.71 26.1243 273.885 21.719C274.318 21.4043 274.967 20.9323 275.832 20.303C276.737 19.6737 277.268 19.3 277.425 19.182C277.779 19.4573 277.956 19.7917 277.956 20.185C277.956 20.5783 277.779 20.9323 277.425 21.247C275.458 23.2137 272.902 25.4163 269.755 27.855C266.648 30.2937 263.068 32.6143 259.017 34.817C254.966 36.9803 251.662 38.062 249.105 38.062Z" fill="#333333"/>
</svg>
