<svg width="60" height="40" viewBox="0 0 60 40" fill="none" xmlns="http://www.w3.org/2000/svg">
<path fill-rule="evenodd" clip-rule="evenodd" d="M37.3289 15.1343C37.3289 5.42891 29.7193 -0.739251 20.0875 1.4491C25.4348 7.28973 21.611 15.1343 37.3289 15.1343Z" fill="#76A713"/>
<path fill-rule="evenodd" clip-rule="evenodd" d="M58.8286 7.32466C45.1328 4.21287 34.3124 12.9836 34.3124 26.784C56.6623 26.784 51.225 15.6297 58.8286 7.32466V7.32466Z" fill="#76A713"/>
<path d="M3.51562 29.7861C1.57711 29.7861 0 31.1234 0 32.7672V36.742C0.193711 40.6978 6.83941 40.6947 7.03125 36.742V32.7672C7.03125 31.1234 5.45414 29.7861 3.51562 29.7861ZM4.6875 36.742C4.62293 38.0606 2.40762 38.0595 2.34375 36.742V32.7672C2.40832 31.4487 4.62363 31.4496 4.6875 32.7672V36.742Z" fill="black"/>
<path d="M13.9868 35.3846C17.1405 33.9025 15.9594 29.8227 12.3052 29.7861H9.96143C9.3142 29.7861 8.78955 30.231 8.78955 30.7798V38.7294C8.85143 40.0478 11.072 40.0468 11.1333 38.7294V35.7483H11.581L13.6008 39.1738C13.8913 39.6696 14.6065 39.8614 15.1731 39.6181C15.752 39.3727 15.9866 38.7758 15.6972 38.2849L13.9868 35.3846ZM11.1332 31.7735H12.3051C13.8535 31.8274 13.862 33.6952 12.3162 33.7608C12.3054 33.7607 12.2946 33.7608 12.2839 33.7609H11.1331V31.7735H11.1332Z" fill="black"/>
<path d="M21.0942 31.7736C21.7404 31.7736 22.2661 32.2194 22.2661 32.7673C22.3274 34.0849 24.5482 34.0856 24.6099 32.7673C24.4167 28.8124 17.7709 28.8138 17.5786 32.7673V36.7422C17.7723 40.698 24.4179 40.6949 24.6099 36.7422V35.7484C24.6099 35.1996 24.0852 34.7547 23.438 34.7547H22.2662C20.7114 34.8072 20.7126 36.69 22.2661 36.7422C22.2014 38.0607 19.9863 38.0597 19.9224 36.7422V32.7673C19.9224 32.2194 20.4481 31.7736 21.0942 31.7736Z" fill="black"/>
<path d="M29.8834 29.7861C27.9448 29.7861 26.3677 31.1234 26.3677 32.7672V38.7294C26.4296 40.0478 28.6502 40.0468 28.7115 38.7294V36.7419H31.0552V38.7294C31.1171 40.0478 33.3377 40.0468 33.399 38.7294V32.7672C33.399 31.1234 31.8219 29.7861 29.8834 29.7861ZM28.7115 34.7545V32.7672C28.7761 31.4486 30.9913 31.4497 31.0552 32.7672V34.7545H28.7115Z" fill="black"/>
<path d="M41.6022 29.7863C40.9549 29.7863 40.4303 30.2311 40.4303 30.78V34.9361L37.3501 30.2927C37.0889 29.8989 36.5473 29.7042 36.0318 29.8187C35.5164 29.9331 35.1569 30.3281 35.1569 30.78V38.7295C35.2187 40.048 37.4393 40.047 37.5006 38.7295V34.5734L40.5808 39.2167C40.7919 39.5351 41.1863 39.7234 41.6021 39.7233C41.7006 39.7233 41.8003 39.7128 41.8991 39.6908C42.4145 39.5764 42.774 39.1814 42.774 38.7295V30.78C42.774 30.2311 42.2494 29.7863 41.6022 29.7863Z" fill="black"/>
<path d="M45.7038 29.7861C45.0566 29.7861 44.532 30.231 44.532 30.7798V38.7294C44.5938 40.0478 46.8144 40.0468 46.8757 38.7294V30.7798C46.8757 30.231 46.3511 29.7861 45.7038 29.7861Z" fill="black"/>
<path d="M52.1495 31.7737C52.7956 31.7737 53.3213 32.2194 53.3213 32.7674C53.3826 34.0849 55.6035 34.0856 55.6651 32.7674C55.472 28.8123 48.826 28.8138 48.6337 32.7674V36.7422C48.8272 40.6976 55.4728 40.6955 55.6651 36.7422C55.6651 36.1934 55.1405 35.7485 54.4932 35.7485C53.846 35.7485 53.3213 36.1934 53.3213 36.7422C53.3213 37.2901 52.7956 37.7359 52.1495 37.7359C51.5033 37.7359 50.9776 37.2901 50.9776 36.7422V32.7674C50.9775 32.2194 51.5033 31.7737 52.1495 31.7737Z" fill="black"/>
<path d="M13.2814 24.8177V20.8429C13.0877 16.8871 6.44208 16.8902 6.25012 20.8429V24.8177C6.44383 28.7734 13.0895 28.7705 13.2814 24.8177ZM8.59387 24.8177V20.8429C8.65844 19.5243 10.8736 19.5254 10.9376 20.8429V24.8177C10.8732 26.1363 8.65786 26.1353 8.59387 24.8177Z" fill="black"/>
<path d="M22.1359 24.8177V20.8429C21.9422 16.8872 15.2966 16.8901 15.1046 20.8429V24.8177C15.2982 28.7734 21.9439 28.7705 22.1359 24.8177ZM17.4484 24.8177V20.8429C17.4484 20.295 17.9741 19.8492 18.6203 19.8492C19.2664 19.8492 19.7921 20.295 19.7921 20.8429V24.8177C19.7276 26.1363 17.5124 26.1353 17.4484 24.8177Z" fill="black"/>
<path d="M1.1721 19.8491H2.08371V26.8051C2.14558 28.1235 4.36617 28.1225 4.42746 26.8051V18.8554C4.42746 18.3066 3.90281 17.8617 3.25558 17.8617H1.1721C-0.382742 17.9142 -0.38157 19.7971 1.1721 19.8491V19.8491Z" fill="black"/>
<path d="M30.3424 17.9668C29.7636 17.7212 29.0596 17.9202 28.7701 18.4111L24.0826 26.3608C23.7932 26.8517 24.0278 27.4486 24.6067 27.694C25.1732 27.9373 25.8884 27.7454 26.179 27.2496L30.8665 19.3C31.1559 18.8091 30.9213 18.2122 30.3424 17.9668V17.9668Z" fill="black"/>
<path d="M25.1316 19.8491C26.6865 19.7967 26.6853 17.9137 25.1316 17.8617H25.1309C23.576 17.9144 23.5779 19.7972 25.1316 19.8491Z" fill="black"/>
<path d="M29.8178 25.8113H29.817C29.1698 25.8113 28.6455 26.2561 28.6455 26.805C28.7074 28.1229 30.9282 28.1229 30.9896 26.805C30.9897 26.2561 30.4651 25.8113 29.8178 25.8113V25.8113Z" fill="black"/>
<path d="M59.9386 7.0079C59.8134 6.69239 59.5103 6.45093 59.1312 6.36477C50.9826 4.4666 43.0458 6.7391 38.2708 12.2389C37.1377 4.09297 29.3333 -1.77335 19.7836 0.489511C18.9893 0.653969 18.6455 1.52078 19.1613 2.05877C20.6731 3.7099 21.4126 5.58561 22.1279 7.39941C24.0993 13.1766 27.5194 15.8105 35.6309 16.0966C34.0085 19.206 33.1398 22.8446 33.1398 26.7839C33.1398 27.3328 33.6644 27.7776 34.3116 27.7776C41.7122 27.7776 46.7078 26.6016 50.0329 24.0764C55.65 19.7347 55.0453 12.9458 59.7536 7.93412C59.9943 7.67109 60.0638 7.3234 59.9386 7.0079V7.0079ZM24.3507 6.76911C23.7707 5.29823 23.13 3.67373 22.0375 2.11759C28.4974 1.23747 33.689 4.91536 35.3758 10.1806C33.8811 8.4899 31.9719 6.72121 29.8244 5.07048C29.3449 4.70201 28.6037 4.73272 28.1692 5.13934C27.7345 5.54596 27.7708 6.17438 28.2504 6.54294C31.5035 9.04339 34.2266 11.8802 35.5579 14.1043C28.5792 13.7923 26.1135 11.8655 24.3507 6.76911V6.76911ZM53.234 15.022C50.9574 20.7952 49.1386 25.4042 36.027 25.7671C37.3152 23.3547 39.8647 20.3466 43.1958 17.3348C43.6386 16.9346 43.6148 16.3057 43.1428 15.9302C42.6707 15.5548 41.9292 15.575 41.4863 15.9753C39.296 17.9556 37.4479 19.9095 36.0247 21.7344C37.9092 12.6663 46.1542 6.23062 56.8581 7.96612C55.108 10.2698 54.1578 12.6795 53.234 15.022Z" fill="black"/>
<path d="M46.1022 12.5269H46.1014C45.4541 12.5269 44.93 12.9717 44.93 13.5205C44.9918 14.8385 47.2127 14.8385 47.2741 13.5205C47.2741 12.9717 46.7494 12.5269 46.1022 12.5269Z" fill="black"/>
</svg>
