<svg width="50" height="41" viewBox="0 0 50 41" fill="none" xmlns="http://www.w3.org/2000/svg">
<path d="M18.1418 33.2721L18.1824 33.2606C19.5899 32.8629 21.0641 32.6601 22.5471 32.6601H33.3026C34.8975 32.6601 36.1903 31.5639 36.1903 30.2114C36.1903 28.859 34.8975 27.7628 33.3026 27.7628H25.5933C23.7527 27.7628 21.9382 27.3457 20.3736 26.5226C18.4873 25.5307 15.4341 24.1918 11.6438 23.4774C5.14621 22.2531 0.814636 27.1508 0.814636 27.1508V33.8845L3.34616 34.0991C6.45253 34.3628 9.49176 35.0341 12.3548 36.0896L20.0631 38.9316C22.9914 40.0113 26.3071 40.0528 29.2712 39.0475L35.4681 36.9455L36.5782 36.7103C39.5214 36.0864 41.9583 34.3434 43.1802 31.9888L49.185 20.4167H48.6894C46.7295 20.4167 44.8833 21.1995 43.7075 22.529L36.3166 29.7485" fill="#EAC583" fill-opacity="0.5"/>
<path d="M24.8332 40.4573C23.0915 40.4573 21.3506 40.1597 19.7385 39.5651L12.0297 36.7235C9.24078 35.6948 6.29199 35.0433 3.26535 34.7867L0.733817 34.5721C0.317024 34.5369 0 34.2396 0 33.8846V27.151C0 27.0015 0.0573441 26.8561 0.163174 26.7367C0.352456 26.522 4.88963 21.4958 11.8203 22.8036C15.7183 23.5381 18.8569 24.9126 20.8033 25.9365C22.2164 26.6797 23.8728 27.0723 25.5936 27.0723H33.3024C34.6311 27.0723 35.799 27.6685 36.4522 28.5627L43.0915 22.0765C44.3787 20.619 46.4846 19.7263 48.6893 19.7263H49.1853C49.4609 19.7263 49.7173 19.8441 49.8674 20.0394C50.018 20.2347 50.0418 20.4818 49.9313 20.6953L43.9265 32.2673C42.6136 34.7982 39.9404 36.71 36.7762 37.3809L35.7197 37.6046L29.5741 39.6892C28.0618 40.202 26.4473 40.4573 24.8332 40.4573V40.4573ZM1.62988 33.2592L3.42759 33.4118C6.62254 33.6826 9.73543 34.3709 12.68 35.4564L20.3884 38.2981C23.0989 39.2974 26.2249 39.3366 28.9695 38.4056L35.1654 36.304C35.1999 36.2926 35.2349 36.2831 35.2708 36.2756L36.3808 36.0399C39.0602 35.4719 41.3236 33.8534 42.4346 31.7107L47.9116 21.1558C46.5093 21.331 45.2188 21.9718 44.3591 22.9435L37.0042 30.1314C37.0051 30.1582 37.0056 30.1847 37.0056 30.212C37.0056 31.9431 35.3444 33.3517 33.3029 33.3517H22.5474C21.1492 33.3517 19.7674 33.5419 18.441 33.9166L18.1417 33.2722L17.8885 32.6156L17.93 32.6041C19.4187 32.1835 20.9735 31.9696 22.5474 31.9696H33.3029C34.4456 31.9696 35.3761 31.181 35.3761 30.2116C35.3761 29.2423 34.4461 28.4536 33.3029 28.4536H25.5941C23.5693 28.4536 21.6159 27.9891 19.945 27.1103C18.1063 26.1429 15.1421 24.845 11.4679 24.152C6.21926 23.1649 2.44248 26.5805 1.63034 27.3953V33.2592H1.62988Z" fill="black"/>
<path d="M28.2485 17.9685C28.2485 17.9685 24.6387 9.39771 37.6339 10.0101C37.6339 10.0101 38.356 22.2534 28.2485 17.9685V17.9685Z" fill="#76A713"/>
<path d="M32.0895 19.57C30.8364 19.57 29.4312 19.2419 27.8843 18.586C27.6969 18.5062 27.5524 18.3678 27.4815 18.2006C27.4186 18.0508 25.9626 14.4996 28.2764 11.8734C29.958 9.96438 33.1198 9.10455 37.6794 9.32C38.0952 9.33937 38.4267 9.62203 38.4472 9.97545C38.4635 10.2498 38.7997 16.7256 34.9054 18.8817C34.0774 19.3407 33.1366 19.57 32.0895 19.57V19.57ZM28.9235 17.4772C31.0639 18.3283 32.7749 18.4117 34.015 17.725C36.3241 16.4461 36.8234 12.6498 36.8355 10.674C33.263 10.6001 30.8308 11.2828 29.5818 12.7C28.0955 14.3877 28.6731 16.709 28.9235 17.4772Z" fill="black"/>
<path d="M22.9106 9.36987C22.9106 9.36987 11.8446 12.8191 12.5057 0.70894C12.5057 0.70894 28.3587 -0.0876529 22.9106 9.36987Z" fill="#76A713"/>
<path d="M19.6286 10.5175C18.1838 10.5175 16.5171 10.255 15.0625 9.35169C12.5953 7.81861 11.4615 4.8999 11.6918 0.676998C11.7114 0.323969 12.0414 0.0401231 12.4578 0.0191708C12.8102 0.0021716 21.1526 -0.375367 23.9597 3.19761C25.2669 4.86076 25.1597 7.03902 23.6422 9.6731C23.5499 9.8332 23.3886 9.95694 23.1914 10.0182C23.0818 10.0526 21.5522 10.5175 19.6286 10.5175ZM22.9102 9.36988H22.9182H22.9102ZM13.2955 1.37871C13.2251 4.76114 14.1422 7.06669 16.0252 8.23687C18.2798 9.63752 21.3582 9.04215 22.3261 8.80298C23.4333 6.76545 23.527 5.13868 22.6039 3.96376C20.8883 1.77996 15.8569 1.35301 13.2955 1.37871V1.37871Z" fill="black"/>
<path d="M25.992 28.2108C25.9663 28.2108 25.9407 28.2096 25.9146 28.2077C25.4805 28.1729 25.1556 27.8546 25.1775 27.485C25.2255 26.6722 25.3076 25.9013 25.419 25.1707C25.7579 20.2813 25.5831 8.89502 17.0934 5.74503C16.6812 5.59204 16.4929 5.18485 16.6733 4.83498C16.8533 4.48591 17.3349 4.32659 17.7465 4.47919C22.7494 6.33526 25.8968 10.9563 26.8465 17.8425C26.9318 18.4596 26.9957 19.068 27.0433 19.6606C29.2792 14.8696 32.6998 13.1768 32.9036 13.08C33.2952 12.8922 33.7922 13.0116 34.0131 13.3433C34.2327 13.6753 34.0947 14.0956 33.7045 14.283C33.6183 14.3257 28.3729 16.9949 27.0563 25.2265C26.9561 26.6346 26.8116 27.5324 26.798 27.6147C26.7416 27.9594 26.3943 28.2108 25.992 28.2108Z" fill="black"/>
</svg>
