<svg width="20" height="20" viewBox="0 0 20 20" fill="none" xmlns="http://www.w3.org/2000/svg">
<path d="M1.57395 5.286L9.07395 9.315C9.32595 9.45 9.65195 9.514 9.97995 9.514C10.308 9.514 10.634 9.45 10.886 9.315L18.386 5.286C18.875 5.023 19.337 4 18.44 4H1.52095C0.623953 4 1.08595 5.023 1.57395 5.286ZM18.613 7.489L10.886 11.516C10.546 11.694 10.308 11.715 9.97995 11.715C9.65195 11.715 9.41395 11.694 9.07395 11.516C8.73395 11.338 1.94095 7.777 1.38595 7.488C0.995953 7.284 0.999953 7.523 0.999953 7.707V15C0.999953 15.42 1.56595 16 1.99995 16H18C18.434 16 19 15.42 19 15V7.708C19 7.524 19.004 7.285 18.613 7.489Z" fill="#333333"/>
</svg>
