<svg width="20" height="20" viewBox="0 0 20 20" fill="none" xmlns="http://www.w3.org/2000/svg">
<g clip-path="url(#clip0_2_186)">
<path d="M17.2559 12.253C17.1599 11.586 16.6449 11.066 15.9819 10.911C13.4049 10.307 12.7589 8.823 12.6499 7.177C12.1929 7.092 11.3799 7 9.99994 7C8.61994 7 7.80694 7.092 7.34994 7.177C7.24094 8.823 6.59494 10.307 4.01794 10.911C3.35494 11.067 2.83994 11.586 2.74394 12.253L2.24694 15.695C2.07194 16.907 2.96194 18 4.19994 18H15.7999C17.0369 18 17.9279 16.907 17.7529 15.695L17.2559 12.253ZM9.99994 15.492C8.60494 15.492 7.47394 14.372 7.47394 12.992C7.47394 11.612 8.60494 10.492 9.99994 10.492C11.3949 10.492 12.5259 11.612 12.5259 12.992C12.5259 14.372 11.3939 15.492 9.99994 15.492ZM19.9499 6C19.9259 4.5 16.1079 2.001 9.99994 2C3.89094 2.001 0.072939 4.5 0.049939 6C0.026939 7.5 0.0709391 9.452 2.58494 9.127C5.52594 8.746 5.34494 7.719 5.34494 6.251C5.34494 5.227 7.73694 4.98 9.99994 4.98C12.2629 4.98 14.6539 5.227 14.6549 6.251C14.6549 7.719 14.4739 8.746 17.4149 9.127C19.9279 9.452 19.9729 7.5 19.9499 6Z" fill="#333333"/>
</g>
<defs>
<clipPath id="clip0_2_186">
<rect width="20" height="20" fill="white"/>
</clipPath>
</defs>
</svg>
